<svg width="365" height="149" viewBox="0 0 365 149" fill="none" xmlns="http://www.w3.org/2000/svg">
<path d="M33 0H115.8C134 0 148.8 14.8 148.8 33V115.8C148.8 134 134 148.8 115.8 148.8H33C14.8 148.8 0 134 0 115.8V33C0 14.8 14.8 0 33 0Z" fill="black"/>
<path d="M32.9 123.9C30.9 123.9 29.2 123.3 27.8 122C26.5 120.6 25.9 118.9 25.9 116.9V55.5C25.9 53.4 26.5 51.7 27.8 50.4C29.2 49.1 30.9 48.5 32.9 48.5C35 48.5 36.7 49.1 38 50.4C39.3 51.7 39.9 53.4 39.9 55.5V116.9C39.9 118.9 39.3 120.6 38 122C36.7 123.2 35 123.9 32.9 123.9ZM32.9 36.2C30.4 36.2 28.3 35.3 26.4 33.6C24.7 31.8 23.8 29.6 23.8 27.1C23.8 24.6 24.7 22.5 26.4 20.8C28.2 19 30.4 18 32.9 18C35.4 18 37.5 18.9 39.2 20.8C41 22.5 42 24.7 42 27.1C42 29.6 41.1 31.7 39.2 33.6C37.5 35.3 35.4 36.2 32.9 36.2Z" fill="white"/>
<path d="M125.3 113.2C126.6 114.6 127.2 116.2 127.2 118C127.2 119.7 126.6 121 125.4 122.1C124.3 123.2 122.8 123.8 121 123.8C118.8 123.8 117.1 123.1 116 121.6L94.1 95.4L73.3 121.6C71.9 123.1 70.3 123.8 68.3 123.8C66.5 123.8 65 123.2 63.9 122.1C62.9 121 62.4 119.6 62.4 118C62.4 116.2 63 114.5 64.3 112.9L85.7 86.1L62.9 59.2C61.5 57.5 60.8 55.8 60.8 54C60.8 52.4 61.3 51.1 62.3 50C63.4 48.9 64.9 48.3 66.9 48.3C69.1 48.3 70.9 49.1 72.1 50.6L94.7 77.6L115 50.6C116.2 49 117.9 48.3 120.1 48.3C121.9 48.3 123.4 48.9 124.4 50.1C125.5 51.2 126.1 52.6 126.1 54.2C126.1 56.2 125.5 58.1 124.2 59.7L103.4 86.9L125.3 113.2Z" fill="white"/>
<path d="M181.6 125.4C177.6 125.4 174.1 124.3 170.8 122.2C167.7 120 165.2 117 163.5 113.1C161.8 109.1 160.9 104.7 160.9 99.9V24.6C160.9 22.6 161.5 20.9 162.8 19.6C164.1 18.3 165.7 17.7 167.8 17.7C169.8 17.7 171.5 18.3 172.8 19.6C174.1 20.9 174.7 22.5 174.7 24.6V99.9C174.7 103.3 175.3 106.1 176.6 108.3C177.9 110.5 179.5 111.6 181.6 111.6H185C186.8 111.6 188.3 112.2 189.4 113.5C190.6 114.8 191.2 116.4 191.2 118.5C191.2 120.5 190.3 122.2 188.6 123.5C186.9 124.8 184.6 125.4 181.8 125.4H181.6Z" fill="#535353"/>
<path d="M235.3 49.4C242.4 49.4 248.8 51.1 254.5 54.5C260.3 57.8 264.8 62.4 268.2 68.3C271.6 74.1 273.3 80.6 273.3 87.7V118.5C273.3 120.5 272.6 122.2 271.2 123.6C269.9 124.9 268.3 125.5 266.2 125.5C264.1 125.5 262.5 124.9 261.1 123.6C259.8 122.2 259.2 120.5 259.2 118.5V113.4C256 117.4 252.1 120.4 247.5 122.6C242.9 124.8 237.9 125.9 232.6 125.9C226 125.9 220 124.2 214.5 120.9C209.2 117.6 204.9 113 201.8 107.2C198.8 101.3 197.2 94.8 197.2 87.6C197.2 80.4 198.9 73.9 202.2 68.2C205.5 62.3 210.1 57.7 215.9 54.4C221.8 51.1 228.2 49.4 235.3 49.4ZM235.3 113.5C239.9 113.5 244 112.4 247.7 110.2C251.5 107.9 254.4 104.8 256.5 101C258.6 97 259.7 92.6 259.7 87.8C259.7 82.9 258.6 78.5 256.5 74.6C254.4 70.6 251.4 67.6 247.7 65.4C244 63.1 239.9 62 235.3 62C230.7 62 226.5 63.1 222.8 65.4C219.1 67.6 216.2 70.7 214 74.6C211.9 78.6 210.8 83 210.8 87.8C210.8 92.7 211.9 97.1 214 101C216.2 104.9 219.1 107.9 222.8 110.2C226.5 112.4 230.7 113.5 235.3 113.5Z" fill="#535353"/>
<path d="M329.7 49.4C336.3 49.4 342.3 51.1 347.6 54.4C353 57.7 357.3 62.3 360.3 68.2C363.4 74 365 80.5 365 87.6C365 94.8 363.3 101.3 360 107.2C356.7 113 352.1 117.6 346.2 121C340.4 124.3 334 126 326.9 126C319.8 126 313.4 124.3 307.6 121C301.9 117.6 297.3 113 293.9 107.2C290.6 101.3 288.9 94.8 288.9 87.6V24.7C288.9 22.6 289.5 20.9 290.8 19.6C292.2 18.3 293.9 17.7 295.9 17.7C298 17.7 299.7 18.3 301 19.6C302.3 20.9 302.9 22.6 302.9 24.7V61.9C306.1 57.9 310 54.9 314.6 52.7C319.4 50.5 324.4 49.4 329.7 49.4ZM326.9 113.5C331.5 113.5 335.6 112.4 339.3 110.2C343.1 107.9 346 104.8 348.1 100.8C350.3 96.8 351.4 92.4 351.4 87.6C351.4 82.7 350.3 78.4 348.1 74.5C346 70.5 343 67.5 339.3 65.3C335.6 63 331.5 61.9 326.9 61.9C322.3 61.9 318.2 62.9 314.4 65.2C310.7 67.4 307.8 70.5 305.7 74.4C303.6 78.3 302.5 82.6 302.5 87.5C302.5 92.4 303.6 96.8 305.7 100.7C307.8 104.7 310.7 107.8 314.4 110.1C318.2 112.4 322.3 113.5 326.9 113.5Z" fill="#535353"/>
</svg>
